<svg xmlns="http://www.w3.org/2000/svg" viewBox="0 0 525 241"><defs><style>.cls-1{fill:#fff;}</style></defs><g id="Layer_2" data-name="Layer 2"><g id="Layer_1-2" data-name="Layer 1"><circle class="cls-1" cx="20" cy="20" r="20"/><circle class="cls-1" cx="117" cy="20" r="20"/><circle class="cls-1" cx="214" cy="20" r="20"/><circle class="cls-1" cx="311" cy="20" r="20"/><circle class="cls-1" cx="408" cy="20" r="20"/><circle class="cls-1" cx="505" cy="20" r="20"/><circle class="cls-1" cx="20" cy="87" r="20"/><circle class="cls-1" cx="117" cy="87" r="20"/><circle class="cls-1" cx="214" cy="87" r="20"/><circle class="cls-1" cx="311" cy="87" r="20"/><circle class="cls-1" cx="408" cy="87" r="20"/><circle class="cls-1" cx="505" cy="87" r="20"/><circle class="cls-1" cx="20" cy="154" r="20"/><circle class="cls-1" cx="117" cy="154" r="20"/><circle class="cls-1" cx="214" cy="154" r="20"/><circle class="cls-1" cx="311" cy="154" r="20"/><circle class="cls-1" cx="408" cy="154" r="20"/><circle class="cls-1" cx="505" cy="154" r="20"/><circle class="cls-1" cx="20" cy="221" r="20"/><circle class="cls-1" cx="117" cy="221" r="20"/><circle class="cls-1" cx="214" cy="221" r="20"/><circle class="cls-1" cx="311" cy="221" r="20"/><circle class="cls-1" cx="408" cy="221" r="20"/><circle class="cls-1" cx="505" cy="221" r="20"/></g></g></svg>